<?xml version="1.0" standalone="no"?>
<!DOCTYPE svg PUBLIC "-//W3C//DTD SVG 20010904//EN"
 "http://www.w3.org/TR/2001/REC-SVG-20010904/DTD/svg10.dtd">
<svg version="1.0" xmlns="http://www.w3.org/2000/svg"
 width="480.000000pt" height="480.000000pt" viewBox="0 0 480.000000 480.000000"
 preserveAspectRatio="xMidYMid meet">

<g transform="translate(0.000000,480.000000) scale(0.100000,-0.100000)"
fill="#000000" stroke="none">
<path d="M2460 3608 c-190 -222 -522 -608 -737 -859 l-393 -457 0 -125 c0
-158 10 -213 59 -312 67 -135 178 -231 324 -280 l76 -25 988 0 c1090 0 1044
-2 1167 63 78 41 182 145 223 223 64 121 63 100 63 944 0 850 3 808 -67 942
-69 132 -230 251 -377 277 -37 7 -235 11 -520 11 l-461 0 -345 -402z m223
-479 c47 -13 102 -60 130 -113 21 -40 22 -51 22 -356 0 -304 -1 -316 -22 -355
-46 -85 -114 -125 -214 -125 -114 0 -188 40 -228 123 -20 41 -21 59 -21 357 0
299 1 316 21 357 23 48 71 91 121 110 42 15 142 16 191 2z m936 1 c58 -16 109
-59 136 -113 l25 -51 0 -307 0 -307 -28 -53 c-39 -74 -100 -112 -191 -117 -98
-6 -147 11 -203 68 -66 69 -70 96 -66 440 3 273 4 287 25 327 26 47 77 92 125
110 41 14 132 16 177 3z"/>
<path d="M1242 1244 l3 -257 95 -49 c172 -88 409 -148 590 -148 91 0 147 24
194 83 26 32 31 49 34 105 5 86 -23 144 -89 185 -39 24 -60 28 -169 37 -238
18 -443 103 -606 253 l-54 49 2 -258z"/>
</g>
</svg>
